<?xml version="1.0" encoding="UTF-8"?>
<svg id="_圖層_2" data-name="圖層 2" xmlns="http://www.w3.org/2000/svg" viewBox="0 0 36.47 10.83">
  <defs>
    <style>
      .cls-1 {
        fill: #fff;
      }
    </style>
  </defs>
  <g id="_圖層_1-2" data-name="圖層 1">
    <path class="cls-1" d="M.84,2.68s.02,.04,.07,.04c.03,0,.19-.02,.46-.07,.27-.05,.52-.07,.75-.08-.25,.07-.46,.14-.65,.21-.18,.07-.37,.15-.56,.24-.19,.09-.33,.15-.41,.18-.08,.03-.16,.04-.22,.04-.19,0-.29-.13-.29-.39,0-.66,.16-1.13,.49-1.4,.13-.11,.35-.24,.64-.39,.29-.15,.63-.29,.99-.43,.37-.13,.78-.25,1.22-.35s.88-.15,1.31-.15,.85,.07,1.22,.2c.37,.13,.68,.32,.93,.56,.25,.24,.44,.53,.58,.88,.13,.35,.2,.74,.2,1.17,0,.66-.18,1.3-.55,1.92-.37,.62-.86,1.17-1.48,1.64s-1.31,.85-2.08,1.13-1.53,.42-2.28,.42c-.14,0-.25-.02-.33-.05-.08-.03-.14-.09-.17-.18-.03-.09-.05-.23-.05-.41,0-.22,.02-.4,.05-.54,.03-.14,.09-.3,.17-.49,.55-1.25,1.49-2.81,2.85-4.71-.27,.03-.57,.09-.9,.18-.33,.09-.63,.18-.93,.29-.29,.11-.54,.21-.74,.3-.2,.1-.3,.17-.3,.21ZM3.86,1.66s0,.05,.02,.13c.01,.08,.02,.15,.02,.21,0,.09-.04,.22-.13,.38-.09,.16-.26,.45-.53,.86-.26,.41-.49,.78-.67,1.09s-.41,.71-.66,1.21c-.08,.16-.13,.26-.16,.32-.03,.05-.08,.14-.15,.27-.07,.12-.11,.23-.15,.32s-.05,.16-.05,.21c0,.1,.05,.17,.16,.21,.11,.04,.26,.06,.46,.06,.52,0,1.06-.1,1.64-.29,.58-.19,1.12-.46,1.62-.81s.91-.73,1.21-1.17,.45-.89,.45-1.36c0-.54-.19-.95-.57-1.25-.38-.29-.94-.44-1.67-.44-.31,0-.59,.01-.86,.04Zm4.89,4.54v.15c0,.23,.05,.41,.16,.54s.25,.19,.43,.19,.38-.04,.58-.13c.2-.09,.4-.21,.59-.36,.2-.15,.44-.35,.72-.6v.36c-.43,.53-.83,.94-1.21,1.22-.38,.28-.76,.42-1.14,.42-.34,0-.6-.13-.8-.4-.2-.27-.3-.64-.3-1.11,0-.41,.09-.78,.28-1.12,.19-.33,.49-.69,.91-1.06,.29-.25,.57-.45,.86-.57s.54-.19,.76-.19c.18,0,.32,.04,.42,.13,.1,.08,.16,.21,.16,.38,0,.25-.09,.49-.27,.74-.18,.24-.45,.49-.82,.73s-.82,.47-1.35,.69Zm.06-.38c.34-.14,.63-.31,.88-.51,.24-.2,.42-.4,.54-.58,.12-.19,.17-.32,.17-.41s-.04-.13-.12-.13c-.07,0-.18,.04-.33,.13-.15,.09-.31,.21-.47,.35s-.3,.31-.42,.51c-.13,.2-.21,.41-.24,.64Zm5.85,.18v.39c-.41,.41-.74,.73-.99,.96-.26,.23-.49,.4-.72,.53s-.44,.19-.65,.19-.4-.08-.57-.25-.31-.39-.41-.67-.15-.57-.15-.88c0-.27,.06-.5,.17-.71s.33-.47,.66-.8c.39-.39,.75-.69,1.08-.91s.59-.32,.78-.32c.14,0,.25,.05,.35,.15s.14,.22,.14,.37c0,.12-.06,.3-.19,.53s-.27,.43-.42,.6-.28,.25-.37,.25c-.1,0-.15-.05-.15-.16,0-.03,0-.06,0-.09s0-.05,0-.08c0-.05-.02-.07-.05-.08s-.07,0-.12,.04c-.38,.27-.64,.47-.78,.58-.14,.11-.25,.22-.33,.34-.08,.11-.12,.23-.12,.36,0,.23,.07,.42,.22,.56s.33,.22,.56,.22,.53-.09,.86-.28c.33-.19,.73-.47,1.19-.83Zm3.63-.02v.39c-.25,.23-.45,.39-.6,.47-.15,.08-.37,.11-.65,.09-.49,.6-.93,.9-1.3,.9-.21,0-.41-.07-.58-.22s-.31-.34-.42-.59c-.1-.25-.16-.53-.16-.84,0-.25,.08-.53,.24-.83,.16-.3,.37-.59,.62-.85s.53-.48,.82-.64c.29-.16,.56-.24,.81-.24,.18,0,.32,.03,.42,.08,.1,.06,.15,.14,.15,.24,0,.08-.04,.17-.13,.27,.14,.03,.24,.08,.3,.16,.05,.07,.08,.2,.08,.4s-.04,.42-.13,.71c-.09,.29-.2,.55-.35,.8l.1,.11h.09c.06,0,.13-.02,.19-.05s.12-.07,.17-.11,.16-.12,.32-.25Zm-1.17-1.54c-.31,.2-.58,.37-.81,.53s-.41,.32-.57,.48-.26,.33-.31,.49c-.09,.44-.14,.67-.14,.71,0,.26,.17,.39,.52,.39,.16,0,.44-.14,.82-.43-.06-.18-.1-.36-.1-.53,0-.25,.05-.5,.15-.75,.1-.26,.24-.55,.44-.88Zm8.24,1.53v.38c-.64,.73-1.22,1.33-1.75,1.81-.53,.47-1.05,.84-1.56,1.1-.51,.26-1,.38-1.47,.38-.41,0-.76-.08-1.05-.25-.29-.17-.52-.41-.67-.74-.15-.32-.22-.7-.22-1.15,0-.35,.05-.72,.16-1.1,.11-.39,.26-.78,.47-1.18s.46-.81,.75-1.23,.65-.87,1.05-1.33c.42-.48,.83-.9,1.23-1.25,.41-.35,.77-.62,1.1-.82s.64-.35,.92-.45,.52-.15,.7-.15,.35,.05,.48,.14c.13,.09,.23,.23,.31,.41,.07,.18,.11,.39,.11,.62,0,.44-.15,.93-.44,1.47s-.66,1.06-1.09,1.57c-.44,.5-.85,.92-1.25,1.23s-.68,.48-.86,.48c-.12,0-.23-.05-.33-.14s-.15-.2-.15-.33c0-.22,.11-.49,.34-.81,.23-.32,.48-.61,.75-.87s.43-.4,.49-.4c.03,0,.04,.01,.04,.04,0,.04-.02,.1-.06,.18-.04,.09-.06,.14-.06,.16,0,.03,.01,.05,.03,.05,.06,0,.25-.18,.56-.53,.31-.36,.59-.75,.84-1.17s.38-.78,.38-1.05c0-.11-.02-.2-.07-.26s-.12-.09-.21-.09c-.27,0-.67,.22-1.21,.67s-1.09,1.01-1.66,1.69-1.04,1.39-1.42,2.12-.57,1.37-.57,1.93c0,.32,.05,.59,.14,.8s.23,.38,.41,.5,.4,.18,.65,.18c.55,0,1.17-.22,1.87-.66,.7-.44,1.46-1.09,2.3-1.95Zm4.2,.02v.37c-.33,.35-.61,.63-.86,.85s-.45,.39-.63,.5-.33,.17-.46,.17c-.3,0-.44-.18-.44-.54,0-.29,.09-.62,.28-1,.18-.38,.45-.83,.79-1.34-.17,.1-.33,.21-.48,.34s-.29,.26-.4,.4c-.12,.14-.22,.26-.3,.35-.25,.29-.48,.58-.71,.88-.23,.3-.38,.49-.46,.58-.08,.09-.16,.13-.23,.13-.3,0-.44-.38-.44-1.12,0-.25,.04-.52,.11-.81s.27-.69,.58-1.18c.66-1.02,1.23-1.86,1.7-2.51,.47-.65,.86-1.14,1.17-1.48s.52-.5,.63-.49c.13,.01,.24,.04,.32,.08s.12,.09,.12,.15c0,.1-.07,.26-.2,.48s-.35,.58-.67,1.05c-.35,.5-.59,.86-.73,1.06s-.36,.5-.65,.87-.55,.71-.78,1.01-.51,.61-.81,.96v.7c.51-.58,.95-1.06,1.32-1.43,.37-.37,.69-.65,.94-.84,.26-.19,.45-.28,.57-.28,.11,0,.22,.07,.32,.21,.1,.14,.15,.25,.15,.34,0,.04-.02,.09-.06,.15-.27,.34-.49,.61-.65,.83s-.29,.42-.37,.59c-.09,.17-.13,.32-.13,.45,0,.18,.08,.28,.26,.28,.18,0,.59-.25,1.21-.76Zm.91,.21v.15c0,.23,.05,.41,.16,.54s.25,.19,.43,.19,.38-.04,.58-.13c.2-.09,.4-.21,.59-.36,.2-.15,.44-.35,.72-.6v.36c-.43,.53-.83,.94-1.21,1.22-.38,.28-.76,.42-1.14,.42-.34,0-.6-.13-.8-.4-.2-.27-.3-.64-.3-1.11,0-.41,.09-.78,.28-1.12,.19-.33,.49-.69,.91-1.06,.29-.25,.57-.45,.86-.57s.54-.19,.76-.19c.18,0,.32,.04,.42,.13,.1,.08,.16,.21,.16,.38,0,.25-.09,.49-.27,.74-.18,.24-.45,.49-.82,.73s-.82,.47-1.35,.69Zm.06-.38c.34-.14,.63-.31,.88-.51,.24-.2,.42-.4,.54-.58,.12-.19,.17-.32,.17-.41s-.04-.13-.12-.13c-.07,0-.18,.04-.33,.13-.15,.09-.31,.21-.47,.35s-.3,.31-.42,.51c-.13,.2-.21,.41-.24,.64Zm5.6,.17v.4c-.23,.23-.4,.4-.52,.51-.12,.11-.28,.21-.48,.32,0,.36-.02,.66-.05,.91s-.11,.51-.23,.79c-.12,.28-.3,.58-.55,.91-.24,.32-.48,.57-.72,.75-.24,.17-.42,.26-.55,.26-.15,0-.28-.12-.41-.38-.12-.25-.19-.56-.19-.93s.06-.73,.18-1.12c.12-.39,.3-.9,.55-1.53-.19-.25-.28-.5-.28-.74,0-.2,.05-.35,.15-.46s.24-.2,.42-.29c.13-.21,.26-.4,.38-.55,.12-.15,.28-.35,.49-.6,.39-1,.86-1.98,1.39-2.93,.15-.27,.25-.44,.32-.54,.06-.09,.13-.14,.2-.14,.06,0,.12,.05,.17,.15s.07,.22,.07,.38c0,.19-.02,.37-.06,.53-.04,.16-.1,.32-.17,.48-.07,.16-.18,.36-.31,.58s-.21,.37-.24,.42c-.19,.34-.4,.72-.64,1.14s-.43,.75-.57,.99-.24,.42-.3,.54c.2,.18,.37,.34,.49,.47s.22,.29,.31,.47c.13-.05,.25-.11,.35-.18s.23-.17,.38-.29,.28-.24,.42-.34Zm-1.7,1.57v-.12c-.12,.01-.2,.01-.27,0s-.14-.02-.22-.05c-.08-.03-.15-.05-.2-.08s-.1-.05-.16-.07c-.29,.73-.43,1.33-.43,1.81,0,.24,.04,.44,.11,.61,.07,.17,.15,.25,.25,.25s.22-.09,.37-.27c.15-.18,.28-.45,.39-.8s.16-.78,.16-1.29Zm-2.34-3.99c-.53,.01-.99,.15-1.42,.4,.02,.04,.06,.01,.08,.04-.02,.02-.05,.04-.07,.06-.09,.07-.21,.03-.23-.09-.01-.07-.02-.14-.02-.21,0-.05,0-.07-.07-.04-.13,.07-.26,.08-.39,0-.02-.01-.04-.01-.05-.02-.3-.07-.45-.42-.29-.69,.06-.11,.12-.21,.17-.33,.07-.14,.2-.23,.33-.31,.07-.04,.13-.09,.19-.16,.18-.22,.44-.32,.71-.38,.14-.03,.29-.03,.44,0,.04,0,.08,0,.11,0,.16-.04,.31-.03,.46,.01,.26,.08,.4,.3,.36,.56,0,.04,0,.08,.01,.12,.04,.11-.02,.2-.08,.28-.03,.03-.06,.07-.09,.08-.15,.05-.15,.16-.12,.28,.02,.08,.03,.17,.02,.26-.03-.11-.08-.23-.1-.34-.02-.09-.07-.11-.15-.12-.37-.02-.72,.07-1.05,.22-.12,.05-.22,.12-.34,.17-.03,.02-.05,.04-.06,.07-.01,.03-.02,.07,0,.09,.03,.03,.05-.01,.07-.03,.19-.15,.41-.24,.64-.3,.24-.06,.48-.1,.72-.11,.02,0,.05-.02,.08,.02-.15,.02-.3,.04-.45,.07-.25,.05-.5,.11-.72,.23-.04,.02-.07,.04-.11,.07-.1,.06-.15,.14-.12,.26,.03,.18,.02,.18,.18,.1,.39-.2,.79-.31,1.23-.29,.03,0,.06,0,.1,0,0,0,.02,0,.05,.02Zm-.89-1.23c.14,.1,.18,.19,.19,.25,.03,.18,.03,.22,.03,.22,0,.09,.02,.12,.11,.09,.17-.04,.2,0,.24-.03,.06-.05,0-.13,.02-.26,.02-.11,.09-.2,.17-.27,0,.04-.01,.06-.01,.06h0c.01-.06-.03,.12-.04,.18-.04,.19,0,.18-.02,.26,0,0,0,.03,0,.04,0,0,.02,.01,.03,.01,.14,.02,.31-.07,.37-.2,.02-.05,.05-.1-.02-.13-.03-.02-.01-.04,0-.06,.06-.17,.04-.32-.09-.44-.15-.13-.33-.13-.53-.1,.02,.02,.06,.05,.09,.1,.04,.07,.04,.13,.05,.17-.09-.14-.19-.2-.24-.23-.47-.24-1.11,.3-1.15,.36-.03,.04-.06,.07-.11,.09-.21,.11-.32,.24-.32,.24-.04,.05-.09,.1-.1,.19-.03,.15,.06,.27,.08,.28,.04,.05,.07,.07,.13,.11,.03,.02,.13,.08,.2,.1,.21,.05,.44-.19,.46-.21-.08-.07-.19-.18-.27-.35-.05-.1-.08-.2-.1-.28,.04,.17,.49,.61,.66,.52,.06-.03,.13-.05,.19-.06,.04,0,.07-.02,.09-.04,.04-.04,.05-.09,.05-.12,.02-.17-.12-.44-.14-.47Zm-1.42,.66c-.04,.06-.06,.11-.07,.17-.04,.23,.05,.37,.28,.43,.02,0,.03,.01,.05,.03,.08,.06,.16,.06,.25,.02,.04-.02,.08-.03,.06-.09-.02-.05,0-.11-.09-.12-.16,0-.29-.09-.36-.23-.04-.07-.08-.13-.11-.21Z"/>
  </g>
</svg>