<svg width="50" height="38" viewBox="0 0 50 38" fill="none" xmlns="http://www.w3.org/2000/svg">
<path d="M26.8229 6.21484C27.8125 5.62695 28.4722 4.56035 28.4722 3.35938C28.4722 1.50332 26.9184 0 25 0C23.0816 0 21.5278 1.50332 21.5278 3.35938C21.5278 4.56875 22.1875 5.62695 23.1771 6.21484L18.2031 15.8395C17.4132 17.368 15.3646 17.8047 13.9844 16.7381L6.25 10.75C6.68403 10.1873 6.94444 9.49023 6.94444 8.73438C6.94444 6.87832 5.39062 5.375 3.47222 5.375C1.55382 5.375 0 6.87832 0 8.73438C0 10.5904 1.55382 12.0938 3.47222 12.0938C3.48958 12.0938 3.51562 12.0938 3.53299 12.0938L7.5 33.2074C7.97743 35.7605 10.2778 37.625 12.9687 37.625H37.0312C39.7135 37.625 42.0139 35.7689 42.5 33.2074L46.467 12.0938C46.4844 12.0938 46.5104 12.0938 46.5278 12.0938C48.4462 12.0938 50 10.5904 50 8.73438C50 6.87832 48.4462 5.375 46.5278 5.375C44.6094 5.375 43.0556 6.87832 43.0556 8.73438C43.0556 9.49023 43.316 10.1873 43.75 10.75L36.0156 16.7381C34.6354 17.8047 32.5868 17.368 31.7969 15.8395L26.8229 6.21484Z" fill="#F1ECE6"/>
</svg>
