<svg width="51" height="48" viewBox="0 0 51 48" fill="none" xmlns="http://www.w3.org/2000/svg">
<path d="M46.6014 0C44.809 0 32.2625 2.96377 32.2625 16.3007V26.6739C32.2625 29.9433 35.4775 32.6015 39.4319 32.6015H43.0167V44.4565C43.0167 46.0959 44.6186 47.4203 46.6014 47.4203C48.5842 47.4203 50.1861 46.0959 50.1861 44.4565V32.6015V22.2283V2.96377C50.1861 1.32443 48.5842 0 46.6014 0ZM7.16944 1.48188C7.16944 0.722419 6.48611 0.0926178 5.56752 0.00926178C4.64894 -0.0740942 3.83117 0.426042 3.62953 1.15772L0.235247 13.7815C0.0784158 14.365 0 14.9578 0 15.5505C0 19.8017 3.93199 23.2934 8.9618 23.6731V44.4565C8.9618 46.0959 10.5637 47.4203 12.5465 47.4203C14.5293 47.4203 16.1312 46.0959 16.1312 44.4565V23.6731C21.1611 23.2934 25.093 19.8017 25.093 15.5505C25.093 14.9578 25.0146 14.365 24.8578 13.7815L21.4635 1.15772C21.2619 0.41678 20.4217 -0.0740942 19.5143 0.00926178C18.6069 0.0926178 17.9236 0.722419 17.9236 1.48188V13.9112C17.9236 14.4113 17.4307 14.8188 16.8258 14.8188C16.2545 14.8188 15.784 14.4576 15.728 13.9853L14.3277 1.35222C14.2493 0.583492 13.4763 0 12.5465 0C11.6167 0 10.8438 0.583492 10.7654 1.35222L9.37629 13.9853C9.32027 14.4576 8.84978 14.8188 8.27847 14.8188C7.67354 14.8188 7.18064 14.4113 7.18064 13.9112V1.48188H7.16944ZM12.5801 15.5598H12.5465H12.5129L12.5465 15.495L12.5801 15.5598Z" fill="#F1ECE6"/>
</svg>
