<svg width="16" height="17" viewBox="0 0 16 17" fill="none" xmlns="http://www.w3.org/2000/svg">
<path d="M15.6368 3.80879L13.9509 0.481719C13.8002 0.183053 13.5326 0 13.2469 0H2.75211C2.46636 0 2.1988 0.183053 2.04813 0.481719L0.362218 3.80879C-0.508016 5.52692 0.263505 7.91624 1.88967 8.18922C2.00657 8.20849 2.12606 8.21812 2.24556 8.21812C3.01448 8.21812 3.69508 7.80063 4.16267 7.15513C4.63026 7.80063 5.31346 8.21812 6.07978 8.21812C6.84871 8.21812 7.52931 7.80063 7.99689 7.15513C8.46448 7.80063 9.14768 8.21812 9.91401 8.21812C10.6829 8.21812 11.3635 7.80063 11.8311 7.15513C12.3013 7.80063 12.9819 8.21812 13.7482 8.21812C13.8703 8.21812 13.9872 8.20849 14.1041 8.18922C15.7355 7.91945 16.5096 5.53013 15.6368 3.80879ZM13.7534 9.249C13.4937 9.249 13.2365 9.20083 12.9871 9.12696V12.332H3.01188V9.12696C2.7625 9.19761 2.50533 9.249 2.24556 9.249C2.0897 9.249 1.93124 9.23615 1.77797 9.21046C1.6325 9.18477 1.48962 9.14302 1.35195 9.09485V15.415C1.35195 15.9834 1.72342 16.4427 2.18321 16.4427H13.821C14.2808 16.4427 14.6522 15.9834 14.6522 15.415V9.09485C14.512 9.14623 14.3717 9.18798 14.2262 9.21046C14.0677 9.23615 13.9119 9.249 13.7534 9.249Z" fill="#CFB89F"/>
</svg>
