<svg width="35" height="35" viewBox="0 0 35 35" fill="none" xmlns="http://www.w3.org/2000/svg">
<circle cx="17.5" cy="17.5" r="17.5" transform="matrix(4.37114e-08 -1 -1 -4.37114e-08 35 35)" fill="#CBAC8D"/>
<path d="M17.0284 10.1827C17.3213 9.88979 17.7962 9.88979 18.0891 10.1827L22.8621 14.9557C23.1549 15.2485 23.1549 15.7234 22.8621 16.0163C22.5692 16.3092 22.0943 16.3092 21.8014 16.0163L17.5588 11.7737L13.3161 16.0163C13.0232 16.3092 12.5483 16.3092 12.2555 16.0163C11.9626 15.7234 11.9626 15.2485 12.2555 14.9556L17.0284 10.1827ZM16.8087 25.8837L16.8088 10.713L18.3088 10.713L18.3087 25.8837L16.8087 25.8837Z" fill="#F1ECE6"/>
</svg>
