<svg width="25" height="24" viewBox="0 0 25 24" fill="none" xmlns="http://www.w3.org/2000/svg">
<path d="M24.3222 0.262625C24.8153 0.590682 25.0741 1.15775 24.9814 1.72482L21.8563 21.2208C21.7831 21.6754 21.495 22.0737 21.0751 22.2987C20.6551 22.5236 20.1522 22.5518 19.7078 22.3737L13.8679 20.0445L10.5231 23.5172C10.0886 23.9718 9.40495 24.1217 8.80435 23.8968C8.20376 23.6718 7.81313 23.1141 7.81313 22.4955V18.5776C7.81313 18.3901 7.88637 18.212 8.01821 18.0761L16.2019 9.50446C16.4851 9.20921 16.4754 8.75461 16.1824 8.47342C15.8894 8.19223 15.4158 8.17349 15.1082 8.44062L5.17637 16.9092L0.86478 14.8377C0.347194 14.5893 0.0151572 14.0926 0.000508579 13.5396C-0.0141401 12.9865 0.288599 12.471 0.786653 12.1945L22.662 0.197013C23.1845 -0.0888648 23.829 -0.0607457 24.3222 0.262625Z" fill="#CBAC8D"/>
</svg>
