<svg width="24" height="24" viewBox="0 0 24 24" fill="none" xmlns="http://www.w3.org/2000/svg">
<path d="M14.5781 9.225V13.0359C14.5781 13.1344 14.5031 13.2094 14.4047 13.2094H13.7953C13.7344 13.2094 13.6828 13.1766 13.6547 13.1391L11.9062 10.7813V13.0406C11.9062 13.1391 11.8312 13.2141 11.7328 13.2141H11.1234C11.025 13.2141 10.95 13.1391 10.95 13.0406V9.22969C10.95 9.13125 11.025 9.05625 11.1234 9.05625H11.7281C11.7797 9.05625 11.8406 9.08438 11.8687 9.13125L13.6172 11.4891V9.22969C13.6172 9.13125 13.6922 9.05625 13.7906 9.05625H14.4C14.4984 9.05156 14.5781 9.13125 14.5781 9.22031V9.225ZM10.1859 9.05156H9.57656C9.47813 9.05156 9.40313 9.12656 9.40313 9.225V13.0359C9.40313 13.1344 9.47813 13.2094 9.57656 13.2094H10.1859C10.2844 13.2094 10.3594 13.1344 10.3594 13.0359V9.225C10.3594 9.13594 10.2844 9.05156 10.1859 9.05156ZM8.71406 12.2437H7.04532V9.225C7.04532 9.12656 6.97032 9.05156 6.87188 9.05156H6.2625C6.16407 9.05156 6.08907 9.12656 6.08907 9.225V13.0359C6.08907 13.0828 6.10313 13.1203 6.13594 13.1531C6.16875 13.1812 6.20625 13.2 6.25313 13.2H8.7C8.79844 13.2 8.87344 13.125 8.87344 13.0266V12.4172C8.87344 12.3281 8.79844 12.2437 8.70938 12.2437H8.71406ZM17.7937 9.05156H15.3422C15.2531 9.05156 15.1687 9.12656 15.1687 9.225V13.0359C15.1687 13.125 15.2437 13.2094 15.3422 13.2094H17.7891C17.8875 13.2094 17.9625 13.1344 17.9625 13.0359V12.4219C17.9625 12.3234 17.8875 12.2484 17.7891 12.2484H16.125V11.6109H17.7891C17.8875 11.6109 17.9625 11.5359 17.9625 11.4375V10.8234C17.9625 10.725 17.8875 10.65 17.7891 10.65H16.125V10.0078H17.7891C17.8875 10.0078 17.9625 9.93281 17.9625 9.83438V9.225C17.9578 9.13594 17.8828 9.05156 17.7891 9.05156H17.7937ZM24 4.37813V19.6594C23.9953 22.0594 22.0266 24.0047 19.6219 24H4.34063C1.94063 23.9953 -0.00467904 22.0219 8.45361e-06 19.6219V4.34063C0.00469595 1.94063 1.97813 -0.00467904 4.37813 8.45361e-06H19.6594C22.0594 0.00469595 24.0047 1.97344 24 4.37813ZM20.7 10.9453C20.7 7.03594 16.7766 3.85313 11.9625 3.85313C7.14844 3.85313 3.22501 7.03594 3.22501 10.9453C3.22501 14.4469 6.33282 17.3859 10.5328 17.9437C11.5547 18.1641 11.4375 18.5391 11.2078 19.9172C11.1703 20.1375 11.0297 20.7797 11.9625 20.3906C12.8953 20.0016 16.9922 17.4281 18.8297 15.3187C20.0953 13.9266 20.7 12.5156 20.7 10.9547V10.9453Z" fill="#CBAC8D"/>
</svg>
