<svg width="35" height="35" viewBox="0 0 35 35" fill="none" xmlns="http://www.w3.org/2000/svg">
<circle cx="17.5" cy="17.5" r="17.5" fill="#CBAC8D"/>
<path d="M24.231 9.66429C24.5492 9.88476 24.7162 10.2659 24.6563 10.647L22.6401 23.7493C22.5929 24.0548 22.407 24.3225 22.1361 24.4737C21.8651 24.6249 21.5407 24.6438 21.254 24.5241L17.4862 22.9587L15.3283 25.2926C15.0479 25.5981 14.6069 25.6989 14.2194 25.5477C13.8319 25.3965 13.5799 25.0217 13.5799 24.606V21.9729C13.5799 21.8469 13.6271 21.7272 13.7122 21.6359L18.9921 15.8753C19.1748 15.6769 19.1685 15.3714 18.9795 15.1824C18.7905 14.9934 18.4849 14.9808 18.2864 15.1603L11.8787 20.8517L9.09699 19.4595C8.76306 19.2926 8.54884 18.9587 8.53939 18.5871C8.52994 18.2154 8.72526 17.869 9.04659 17.6832L23.1599 9.6202C23.497 9.42807 23.9128 9.44697 24.231 9.66429Z" fill="#F1ECE6"/>
</svg>
