<svg width="90" height="90" viewBox="0 0 90 90" fill="none" xmlns="http://www.w3.org/2000/svg">
<circle cx="45" cy="45" r="45" transform="matrix(-1 0 0 1 90 0)" fill="#F1ECE6"/>
<path d="M26.4887 45.9089C25.9029 45.3231 25.9029 44.3733 26.4887 43.7876L36.0346 34.2416C36.6204 33.6558 37.5701 33.6558 38.1559 34.2416C38.7417 34.8274 38.7417 35.7772 38.1559 36.3629L29.6706 44.8482L38.1559 53.3335C38.7417 53.9193 38.7417 54.869 38.1559 55.4548C37.5701 56.0406 36.6204 56.0406 36.0346 55.4548L26.4887 45.9089ZM66.5596 46.3482L27.5493 46.3482L27.5493 43.3482L66.5596 43.3482L66.5596 46.3482Z" fill="#CBAC8D"/>
</svg>
