<svg width="35" height="35" viewBox="0 0 35 35" fill="none" xmlns="http://www.w3.org/2000/svg">
<circle cx="17.5" cy="17.5" r="17.5" transform="matrix(4.37114e-08 1 1 -4.37114e-08 0 0)" fill="#CBAC8D"/>
<path d="M17.9716 24.8173C17.6787 25.1102 17.2038 25.1102 16.9109 24.8173L12.1379 20.0443C11.8451 19.7515 11.8451 19.2766 12.1379 18.9837C12.4308 18.6908 12.9057 18.6908 13.1986 18.9837L17.4412 23.2263L21.6839 18.9837C21.9768 18.6908 22.4517 18.6908 22.7445 18.9837C23.0374 19.2766 23.0374 19.7515 22.7445 20.0444L17.9716 24.8173ZM18.1913 9.11632L18.1912 24.287L16.6912 24.287L16.6913 9.11632L18.1913 9.11632Z" fill="#F1ECE6"/>
</svg>
