<svg width="35" height="35" viewBox="0 0 35 35" fill="none" xmlns="http://www.w3.org/2000/svg">
<circle cx="17.5" cy="17.5" r="17.5" fill="#CBAC8D"/>
<path d="M26.5658 16.6037C26.5658 20.0104 22.9558 22.7707 18.5016 22.7707C17.333 22.7707 16.2241 22.581 15.2224 22.24C14.8475 22.498 14.2364 22.8508 13.5119 23.1473C12.7559 23.4556 11.8455 23.7195 10.9415 23.7195C10.7367 23.7195 10.554 23.6039 10.4753 23.426C10.3965 23.2481 10.4406 23.0465 10.5824 22.9101L10.5918 22.9012C10.6013 22.8923 10.6139 22.8804 10.6328 22.8597C10.6674 22.8241 10.721 22.7678 10.7871 22.6907C10.9163 22.5424 11.0895 22.323 11.2659 22.0503C11.5809 21.5581 11.8802 20.9117 11.94 20.1853C10.995 19.1772 10.4375 17.9408 10.4375 16.6037C10.4375 13.1969 14.0474 10.4366 18.5016 10.4366C22.9558 10.4366 26.5658 13.1969 26.5658 16.6037Z" fill="#F1ECE6"/>
</svg>
