<svg width="30" height="23" viewBox="0 0 30 23" fill="none" xmlns="http://www.w3.org/2000/svg">
<path d="M16.0938 3.79911C16.6875 3.43973 17.0833 2.78772 17.0833 2.05357C17.0833 0.918973 16.151 0 15 0C13.849 0 12.9167 0.918973 12.9167 2.05357C12.9167 2.79286 13.3125 3.43973 13.9062 3.79911L10.9219 9.68259C10.4479 10.617 9.21875 10.8839 8.39062 10.2319L3.75 6.57143C4.01042 6.22746 4.16667 5.80134 4.16667 5.33929C4.16667 4.20469 3.23438 3.28571 2.08333 3.28571C0.932292 3.28571 0 4.20469 0 5.33929C0 6.47388 0.932292 7.39286 2.08333 7.39286C2.09375 7.39286 2.10938 7.39286 2.11979 7.39286L4.5 20.2996C4.78646 21.8603 6.16667 23 7.78125 23H22.2188C23.8281 23 25.2083 21.8654 25.5 20.2996L27.8802 7.39286C27.8906 7.39286 27.9062 7.39286 27.9167 7.39286C29.0677 7.39286 30 6.47388 30 5.33929C30 4.20469 29.0677 3.28571 27.9167 3.28571C26.7656 3.28571 25.8333 4.20469 25.8333 5.33929C25.8333 5.80134 25.9896 6.22746 26.25 6.57143L21.6094 10.2319C20.7812 10.8839 19.5521 10.617 19.0781 9.68259L16.0938 3.79911Z" fill="#F1ECE6"/>
</svg>
