<svg width="16" height="20" viewBox="0 0 16 20" fill="none" xmlns="http://www.w3.org/2000/svg">
<path d="M15.6601 15.2863L12.0009 10.7626C11.2791 9.87024 10.201 9.6964 9.33229 10.2257L6.00123 6.10758V3.70858L2.00145 0L0.00156239 2.47239L3.0014 7.41717H4.94191L8.27298 11.5352C7.848 12.6092 7.98549 13.942 8.70733 14.8343L12.3665 19.358C12.8227 19.9221 13.5602 19.9221 14.0133 19.358L15.6601 17.3222C16.1132 16.7582 16.1132 15.8465 15.6601 15.2863ZM10.3666 8.692C11.2509 8.692 12.0821 9.11694 12.7071 9.88956L13.3133 10.639C13.807 10.3724 14.2758 10.0016 14.682 9.49939C15.8413 8.06617 16.235 6.04963 15.8663 4.21852C15.7976 3.87084 15.4445 3.75108 15.2382 4.00604L12.9133 6.8802L10.7916 6.44367L10.4385 3.82062L12.7634 0.946462C12.9696 0.691497 12.8696 0.254965 12.5852 0.166114C11.1041 -0.28587 9.47291 0.200882 8.31672 1.63023C7.42615 2.73122 7.00742 4.18375 7.0293 5.63241L9.59478 8.80403C9.84789 8.73063 10.1104 8.692 10.3666 8.692ZM7.11992 11.8597L5.34814 9.66936L0.585905 15.5606C-0.195302 16.5264 -0.195302 18.0909 0.585905 19.0567C1.36711 20.0225 2.63267 20.0225 3.41387 19.0567L7.27616 14.2819C7.03867 13.5132 6.9668 12.6749 7.11992 11.8597ZM2.00145 18.2339C1.58897 18.2339 1.25149 17.8167 1.25149 17.3067C1.25149 16.7929 1.58585 16.3796 2.00145 16.3796C2.41705 16.3796 2.75141 16.7929 2.75141 17.3067C2.75141 17.8167 2.41705 18.2339 2.00145 18.2339Z" fill="#CFB89F"/>
</svg>
