<svg width="26" height="25" viewBox="0 0 26 25" fill="none" xmlns="http://www.w3.org/2000/svg">
<path d="M23.9122 0C22.9925 0 16.5546 1.5625 16.5546 8.59373V14.0625C16.5546 15.7861 18.2043 17.1875 20.2334 17.1875H22.0728V23.4375C22.0728 24.3017 22.8948 24.9999 23.9122 24.9999C24.9296 24.9999 25.7516 24.3017 25.7516 23.4375V17.1875V11.7187V1.5625C25.7516 0.698241 24.9296 0 23.9122 0ZM3.6788 0.781248C3.6788 0.380859 3.32816 0.048828 2.85682 0.0048828C2.38547 -0.0390624 1.96586 0.224609 1.86239 0.61035L0.120711 7.26561C0.0402368 7.57323 0 7.88573 0 8.19822C0 10.4394 2.01759 12.2802 4.5985 12.4804V23.4375C4.5985 24.3017 5.42048 24.9999 6.4379 24.9999C7.45531 24.9999 8.2773 24.3017 8.2773 23.4375V12.4804C10.8582 12.2802 12.8758 10.4394 12.8758 8.19822C12.8758 7.88573 12.8356 7.57323 12.7551 7.26561L11.0134 0.61035C10.9099 0.219726 10.4788 -0.0390624 10.0132 0.0048828C9.54763 0.048828 9.197 0.380859 9.197 0.781248V7.33397C9.197 7.59764 8.94408 7.81248 8.63368 7.81248C8.34052 7.81248 8.0991 7.62205 8.07036 7.37303L7.35185 0.712889C7.31161 0.307617 6.91499 0 6.4379 0C5.9608 0 5.56418 0.307617 5.52394 0.712889L4.81118 7.37303C4.78244 7.62205 4.54102 7.81248 4.24786 7.81248C3.93746 7.81248 3.68455 7.59764 3.68455 7.33397V0.781248H3.6788ZM6.45514 8.20311H6.4379H6.42065L6.4379 8.16893L6.45514 8.20311Z" fill="#F1ECE6"/>
</svg>
