<svg width="18" height="15" viewBox="0 0 18 15" fill="none" xmlns="http://www.w3.org/2000/svg">
<path d="M6.71969 1.72046L3.93937 4.50014H0.75C0.335625 4.50014 0 4.83577 0 5.25014V9.75014C0 10.1642 0.335625 10.5001 0.75 10.5001H3.93937L6.71969 13.2798C7.18937 13.7495 8 13.4195 8 12.7495V2.25077C8 1.58014 7.18875 1.25139 6.71969 1.72046ZM14.0109 0.124207C13.6619 -0.104855 13.1928 -0.00829264 12.9637 0.341395C12.7344 0.690457 12.8319 1.15952 13.1809 1.38858C15.2519 2.74764 16.4878 5.03233 16.4878 7.50046C16.4878 9.96858 15.2519 12.2533 13.1809 13.6123C12.8319 13.8411 12.7344 14.3105 12.9637 14.6592C13.1838 14.9939 13.6491 15.1142 14.0109 14.8764C16.5084 13.237 18 10.4792 18 7.50014C18 4.52108 16.5084 1.76358 14.0109 0.124207ZM15 7.50014C15 5.51483 13.9981 3.68952 12.3197 2.61764C11.97 2.39452 11.5062 2.49827 11.2847 2.85077C11.0631 3.20327 11.1666 3.66983 11.5162 3.89327C12.7584 4.68671 13.5 6.03483 13.5 7.50014C13.5 8.96546 12.7584 10.3136 11.5162 11.107C11.1666 11.3301 11.0631 11.7967 11.2847 12.1495C11.4881 12.4733 11.9447 12.6226 12.3197 12.3826C13.9981 11.3108 15 9.48577 15 7.50014ZM10.5697 5.09796C10.2078 4.90015 9.75125 5.03046 9.55062 5.39327C9.35094 5.75608 9.48313 6.21202 9.84594 6.41233C10.2494 6.63389 10.5 7.05108 10.5 7.50014C10.5 7.94952 10.2494 8.36639 9.84625 8.58796C9.48344 8.78827 9.35125 9.24421 9.55094 9.60702C9.75187 9.97139 10.2087 10.1008 10.57 9.90233C11.4522 9.41639 12.0003 8.49608 12.0003 7.49983C12.0003 6.50358 11.4522 5.58358 10.5697 5.09796Z" fill="white"/>
</svg>
