<svg width="16" height="16" viewBox="0 0 16 16" fill="none" xmlns="http://www.w3.org/2000/svg">
<path d="M15.6601 12.3644L12.0009 8.7054C11.2791 7.9836 10.201 7.84298 9.33229 8.27107L6.00123 4.94014V2.99971L2.00145 0L0.00156239 1.9998L3.0014 5.99941H4.94191L8.27298 9.33034C7.848 10.199 7.98549 11.277 8.70733 11.9988L12.3665 15.6578C12.8227 16.1141 13.5602 16.1141 14.0133 15.6578L15.6601 14.0111C16.1132 13.5549 16.1132 12.8175 15.6601 12.3644ZM10.3666 7.03056C11.2509 7.03056 12.0821 7.37428 12.7071 7.99922L13.3133 8.60541C13.807 8.38981 14.2758 8.08984 14.682 7.68362C15.8413 6.52436 16.235 4.89327 15.8663 3.41217C15.7976 3.13094 15.4445 3.03408 15.2382 3.24031L12.9133 5.56508L10.7916 5.21199L10.4385 3.09032L12.7634 0.76555C12.9696 0.55932 12.8696 0.20623 12.5852 0.134362C11.1041 -0.231227 9.47291 0.162484 8.31672 1.31862C7.42615 2.20916 7.00742 3.38404 7.0293 4.55581L9.59478 7.12118C9.84789 7.06181 10.1104 7.03056 10.3666 7.03056ZM7.11992 9.59281L5.34814 7.82111L0.585905 12.5863C-0.195302 13.3674 -0.195302 14.6329 0.585905 15.4141C1.36711 16.1953 2.63267 16.1953 3.41387 15.4141L7.27616 11.552C7.03867 10.9302 6.9668 10.2521 7.11992 9.59281ZM2.00145 14.7486C1.58897 14.7486 1.25149 14.4111 1.25149 13.9986C1.25149 13.583 1.58585 13.2487 2.00145 13.2487C2.41705 13.2487 2.75141 13.583 2.75141 13.9986C2.75141 14.4111 2.41705 14.7486 2.00145 14.7486Z" fill="#A48374"/>
</svg>
