<svg width="16" height="16" viewBox="0 0 16 16" fill="none" xmlns="http://www.w3.org/2000/svg">
<path d="M3.55828 6.72054L0.0399994 11.592C-0.0626657 11.7483 0.0433327 11.9514 0.237663 11.9714L7.17956 12.6611L3.55828 6.72054ZM0.246996 9.85706L2.75663 6.03367L0.201997 4.59682C0.112998 4.54682 0 4.60682 0 4.704V9.79175C0 9.91768 0.176331 9.96456 0.246996 9.85706ZM0.608324 13.2373L7.08823 15.9767C7.26489 16.0532 7.46656 15.932 7.46656 15.7498V13.6976L0.681657 13.0008C0.533326 12.9851 0.473993 13.1755 0.608324 13.2373ZM3.31562 5.18181L5.97991 0.714991C6.12458 0.494369 5.86025 0.238434 5.62058 0.36687L0.593658 3.44839C0.511326 3.49902 0.513992 3.61277 0.597991 3.66026L3.31562 5.18181ZM7.99988 5.49993H11.6402L8.45421 0.238122C8.34988 0.079374 8.17488 0 7.99988 0C7.82489 0 7.64989 0.079374 7.54556 0.238122L4.3596 5.49993H7.99988ZM15.7978 4.59682L13.2431 6.03398L15.7528 9.85737C15.8231 9.96487 15.9998 9.918 15.9998 9.79175V4.704C15.9998 4.60682 15.8868 4.54682 15.7978 4.59682ZM12.6841 5.18181L15.4018 3.65995C15.4861 3.61245 15.4884 3.4987 15.4061 3.44808L10.3792 0.36687C10.1395 0.238434 9.87519 0.494369 10.0199 0.714991L12.6841 5.18181ZM15.3181 13.0008L8.53321 13.6973V15.7495C8.53321 15.932 8.73487 16.0529 8.91154 15.9764L15.3914 13.237C15.5258 13.1755 15.4664 12.9851 15.3181 13.0008ZM12.4415 6.72054L8.82054 12.6611L15.7624 11.9714C15.9568 11.9511 16.0628 11.7483 15.9601 11.592L12.4415 6.72054ZM7.99988 6.49992H4.65227L7.99988 11.992L11.3475 6.49992H7.99988Z" fill="#A48374"/>
</svg>
