<svg width="170" height="50" viewBox="0 0 170 50" fill="none" xmlns="http://www.w3.org/2000/svg">
<path d="M3.91529 12.3723C3.91529 12.3723 4.00851 12.557 4.24158 12.557C4.38142 12.557 5.12724 12.4647 6.38581 12.2338C7.64438 12.003 8.80972 11.9106 9.88183 11.8645C8.71649 12.1877 7.7376 12.5108 6.85195 12.834C6.0129 13.1572 5.12724 13.5265 4.24158 13.942C3.35592 14.3576 2.70333 14.6346 2.33042 14.7731C1.95751 14.9116 1.5846 14.9577 1.30492 14.9577C0.419261 14.9577 -0.046875 14.3576 -0.046875 13.1572C-0.046875 10.1101 0.698943 7.9402 2.23719 6.69366C2.84317 6.18581 3.86867 5.58563 5.22047 4.89311C6.57226 4.20058 8.15713 3.55423 9.83522 2.90788C11.5599 2.3077 13.4711 1.75368 15.5221 1.292C17.5731 0.830318 19.6241 0.599478 21.6285 0.599478C23.6329 0.599478 25.5906 0.922654 27.3153 1.52284C29.04 2.12302 30.4851 3.00022 31.6504 4.10825C32.8157 5.21628 33.7014 6.55516 34.354 8.17104C34.96 9.78692 35.2863 11.5875 35.2863 13.5727C35.2863 16.6198 34.4472 19.5745 32.7225 22.437C30.9978 25.2994 28.7137 27.8386 25.8237 30.0085C22.9337 32.1784 19.7173 33.9328 16.1281 35.2255C12.5388 36.5182 8.99617 37.1646 5.50015 37.1646C4.84756 37.1646 4.33481 37.0722 3.9619 36.9337C3.58899 36.7952 3.30931 36.5182 3.16947 36.1027C3.02963 35.6872 2.9364 35.0408 2.9364 34.2098C2.9364 33.1941 3.02963 32.3631 3.16947 31.7167C3.30931 31.0704 3.58899 30.3317 3.9619 29.4545C6.52565 23.6835 10.9073 16.4813 17.2468 7.70936C15.9882 7.84786 14.5898 8.12487 13.0516 8.54038C11.5133 8.95589 10.1149 9.37141 8.71649 9.87926C7.3647 10.3871 6.19935 10.8488 5.26708 11.2643C4.33481 11.726 3.86867 12.0492 3.86867 12.2338L3.91529 12.3723ZM17.9926 7.66319C17.9926 7.66319 17.9926 7.89403 18.0858 8.26337C18.1325 8.63272 18.1791 8.95589 18.1791 9.2329C18.1791 9.64842 17.9926 10.2486 17.5731 10.9873C17.1536 11.726 16.3611 13.0649 15.1026 14.9577C13.8906 16.8506 12.8185 18.5588 11.9794 19.9901C11.1404 21.4213 10.0683 23.268 8.90295 25.5764C8.53004 26.3151 8.29697 26.7768 8.15713 27.0538C8.01729 27.2846 7.78422 27.7001 7.45792 28.3003C7.13163 28.8543 6.94517 29.3622 6.75872 29.7777C6.57226 30.1932 6.52565 30.5164 6.52565 30.7472C6.52565 31.2089 6.75872 31.5321 7.27147 31.7167C7.78422 31.9014 8.48342 31.9937 9.4157 31.9937C11.8396 31.9937 14.3567 31.5321 17.0603 30.6549C19.7639 29.7777 22.2811 28.5311 24.6117 26.9153C26.9424 25.2994 28.8536 23.545 30.252 21.5136C31.6504 19.4822 32.3496 17.4046 32.3496 15.2347C32.3496 12.7417 31.464 10.8488 29.6926 9.46374C27.9213 8.12487 25.311 7.43235 21.9082 7.43235C20.4631 7.43235 19.1579 7.47852 17.8994 7.61702L17.9926 7.66319ZM40.7867 28.6235V29.316C40.7867 30.3779 41.0198 31.2089 41.5325 31.8091C42.0453 32.4093 42.6978 32.6863 43.5369 32.6863C44.3759 32.6863 45.3082 32.5016 46.2405 32.0861C47.1728 31.6706 48.105 31.1166 48.9907 30.424C49.923 29.7315 51.0417 28.8082 52.3469 27.654V29.316C50.3425 31.7629 48.4779 33.6558 46.7066 34.9485C44.9353 36.2412 43.164 36.8876 41.3927 36.8876C39.8078 36.8876 38.5958 36.2874 37.6636 35.0408C36.7313 33.7943 36.2652 32.0861 36.2652 29.9162C36.2652 28.0233 36.6847 26.3151 37.5703 24.7454C38.456 23.2218 39.8544 21.5598 41.8122 19.8516C43.164 18.6974 44.4692 17.774 45.821 17.22C47.1728 16.666 48.3381 16.3428 49.3636 16.3428C50.2026 16.3428 50.8552 16.5275 51.3214 16.943C51.7875 17.3123 52.0672 17.9125 52.0672 18.6974C52.0672 19.8516 51.6477 20.9596 50.8086 22.1138C49.9696 23.2218 48.711 24.376 46.9863 25.4841C45.2616 26.5921 43.164 27.654 40.6935 28.6697L40.7867 28.6235ZM41.0664 26.8691C42.6512 26.2227 44.003 25.4379 45.1684 24.5145C46.2871 23.5912 47.1261 22.6678 47.6855 21.8368C48.2449 20.9596 48.4779 20.3594 48.4779 19.9439C48.4779 19.5284 48.2915 19.3437 47.9186 19.3437C47.5923 19.3437 47.0795 19.5284 46.3803 19.9439C45.6811 20.3594 44.9353 20.9134 44.1895 21.5598C43.4437 22.2061 42.7911 22.991 42.2317 23.9143C41.6257 24.8377 41.2528 25.8072 41.113 26.8691H41.0664ZM68.3354 27.7001V29.5007C66.4242 31.3936 64.8859 32.8709 63.7206 33.9328C62.5086 34.9947 61.4365 35.7795 60.3644 36.3797C59.2923 36.9799 58.3134 37.2569 57.3345 37.2569C56.3556 37.2569 55.47 36.8876 54.6776 36.1027C53.8851 35.3179 53.2325 34.3022 52.7664 33.0094C52.3003 31.7167 52.0672 30.3779 52.0672 28.9467C52.0672 27.7001 52.3469 26.6383 52.8596 25.6687C53.3724 24.6992 54.3979 23.4988 55.9361 21.9753C57.7541 20.1747 59.4321 18.7897 60.9704 17.774C62.5086 16.7583 63.7206 16.2966 64.6063 16.2966C65.2588 16.2966 65.7716 16.5275 66.2377 16.9891C66.7039 17.4508 66.8903 18.0048 66.8903 18.6974C66.8903 19.2514 66.6106 20.0824 66.0047 21.1443C65.3987 22.2061 64.7461 23.1295 64.0469 23.9143C63.3477 24.6992 62.7417 25.0685 62.3222 25.0685C61.8561 25.0685 61.623 24.8377 61.623 24.3299C61.623 24.1914 61.623 24.0528 61.623 23.9143C61.623 23.7758 61.623 23.6835 61.623 23.545C61.623 23.3142 61.5298 23.2218 61.3899 23.1757C61.2501 23.1295 61.0636 23.1757 60.8306 23.3603C59.0592 24.6069 57.8473 25.5302 57.1947 26.0381C56.5421 26.5459 56.0293 27.0538 55.6564 27.6078C55.2835 28.1156 55.0971 28.6697 55.0971 29.2698C55.0971 30.3317 55.4234 31.2089 56.1226 31.8552C56.8218 32.5016 57.6608 32.8709 58.7329 32.8709C59.8051 32.8709 61.2035 32.4554 62.7417 31.5782C64.28 30.701 66.1445 29.4083 68.2887 27.7463L68.3354 27.7001ZM85.2561 27.6078V29.4083C84.0908 30.4702 83.1585 31.2089 82.4593 31.5782C81.7601 31.9476 80.7346 32.0861 79.4294 31.9937C77.1453 34.7638 75.0943 36.1489 73.3696 36.1489C72.3907 36.1489 71.4585 35.8257 70.666 35.1332C69.8736 34.4407 69.221 33.5635 68.7083 32.4093C68.2421 31.2551 67.9624 29.9624 67.9624 28.5311C67.9624 27.3769 68.3354 26.0842 69.0812 24.6992C69.827 23.3142 70.8059 21.9753 71.9712 20.7749C73.1366 19.5745 74.4417 18.5588 75.7935 17.8202C77.1453 17.0815 78.4039 16.7121 79.5692 16.7121C80.4083 16.7121 81.0609 16.8506 81.527 17.0815C81.9932 17.3585 82.2262 17.7278 82.2262 18.1895C82.2262 18.5588 82.0398 18.9744 81.6202 19.436C82.2728 19.5745 82.739 19.8054 83.0186 20.1747C83.2517 20.4979 83.3916 21.0981 83.3916 22.0215C83.3916 22.9448 83.2051 23.9605 82.7856 25.2994C82.3661 26.6383 81.8533 27.8386 81.1541 28.9928L81.6202 29.5007H82.0398C82.3194 29.5007 82.6457 29.4083 82.9254 29.2698C83.2051 29.1313 83.4848 28.9467 83.7178 28.762C83.9509 28.5773 84.4637 28.208 85.2095 27.6078H85.2561ZM79.8023 20.4979C78.3573 21.4213 77.0987 22.2061 76.0266 22.9448C74.9545 23.6835 74.1154 24.4222 73.3696 25.1609C72.6238 25.8996 72.1577 26.6844 71.9246 27.4231C71.5051 29.4545 71.272 30.5164 71.272 30.701C71.272 31.9014 72.0644 32.5016 73.6959 32.5016C74.4417 32.5016 75.7469 31.8552 77.5182 30.5164C77.2386 29.6853 77.0521 28.8543 77.0521 28.0695C77.0521 26.9153 77.2852 25.7611 77.7513 24.6069C78.2174 23.4065 78.87 22.0676 79.8023 20.5441V20.4979ZM118.212 27.5616V29.316C115.229 32.6863 112.525 35.4564 110.055 37.6724C107.584 39.8423 105.16 41.5505 102.783 42.7509C100.406 43.9513 98.1215 44.5053 95.9306 44.5053C94.0195 44.5053 92.388 44.136 91.0362 43.3511C89.6844 42.5662 88.6123 41.4582 87.9131 39.9347C87.2139 38.4573 86.8876 36.7029 86.8876 34.6253C86.8876 33.0094 87.1206 31.3012 87.6334 29.5468C88.1462 27.7463 88.8454 25.9457 89.8242 24.099C90.8031 22.2523 91.9685 20.3594 93.3203 18.4203C94.6721 16.4813 96.3502 14.4037 98.2147 12.28C100.172 10.0639 102.084 8.12487 103.948 6.50899C105.859 4.89311 107.537 3.64657 109.076 2.72321C110.614 1.79985 112.059 1.10733 113.364 0.645646C114.669 0.183965 115.788 -0.046875 116.627 -0.046875C117.466 -0.046875 118.259 0.183965 118.865 0.599478C119.471 1.01499 119.937 1.66134 120.31 2.49237C120.636 3.32339 120.822 4.29292 120.822 5.35479C120.822 7.38618 120.123 9.64842 118.771 12.1415C117.42 14.6346 115.695 17.0353 113.69 19.3899C111.639 21.6983 109.728 23.6373 107.864 25.0685C105.999 26.4998 104.694 27.2846 103.855 27.2846C103.296 27.2846 102.783 27.0538 102.317 26.6383C101.851 26.2227 101.617 25.7149 101.617 25.1147C101.617 24.099 102.13 22.8525 103.202 21.3751C104.274 19.8977 105.44 18.5588 106.698 17.3585C107.957 16.1581 108.703 15.5118 108.982 15.5118C109.122 15.5118 109.169 15.5579 109.169 15.6964C109.169 15.8811 109.076 16.1581 108.889 16.5275C108.703 16.943 108.61 17.1738 108.61 17.2661C108.61 17.4046 108.656 17.497 108.749 17.497C109.029 17.497 109.915 16.666 111.36 15.0501C112.805 13.388 114.11 11.5875 115.275 9.64841C116.441 7.70936 117.047 6.04731 117.047 4.80077C117.047 4.29292 116.953 3.87741 116.72 3.6004C116.487 3.32339 116.161 3.18489 115.741 3.18489C114.483 3.18489 112.618 4.20059 110.101 6.27815C107.584 8.35571 105.02 10.9411 102.363 14.0805C99.7063 17.22 97.5155 20.4979 95.7442 23.8682C93.9729 27.2384 93.0872 30.1932 93.0872 32.7786C93.0872 34.256 93.3203 35.5025 93.7398 36.4721C94.1593 37.4416 94.8119 38.2264 95.651 38.7805C96.49 39.3345 97.5155 39.6115 98.6808 39.6115C101.245 39.6115 104.135 38.5958 107.398 36.5644C110.661 34.533 114.203 31.5321 118.119 27.5616H118.212ZM137.79 27.654V29.3622C136.251 30.9781 134.946 32.2708 133.781 33.2865C132.616 34.3022 131.683 35.087 130.844 35.5949C130.005 36.1027 129.306 36.3797 128.7 36.3797C127.302 36.3797 126.649 35.5487 126.649 33.8866C126.649 32.5478 127.069 31.0242 127.954 29.2698C128.793 27.5155 130.052 25.4379 131.637 23.0833C130.844 23.545 130.098 24.0528 129.399 24.653C128.7 25.2532 128.047 25.8534 127.535 26.4998C126.975 27.1461 126.509 27.7001 126.136 28.1156C124.971 29.4545 123.899 30.7934 122.827 32.1784C121.755 33.5635 121.055 34.4407 120.682 34.8562C120.31 35.2717 119.937 35.4564 119.61 35.4564C118.212 35.4564 117.559 33.702 117.559 30.2855C117.559 29.1313 117.746 27.8848 118.072 26.5459C118.398 25.207 119.331 23.3603 120.776 21.0981C123.852 16.389 126.509 12.5108 128.7 9.50991C130.891 6.50899 132.709 4.24675 134.154 2.67704C135.599 1.10733 136.578 0.368637 137.09 0.414805C137.696 0.460974 138.209 0.599478 138.582 0.78415C138.955 0.968822 139.141 1.19966 139.141 1.47667C139.141 1.93835 138.815 2.67704 138.209 3.69274C137.603 4.70843 136.578 6.37048 135.086 8.54038C133.455 10.8488 132.336 12.5108 131.683 13.4342C131.031 14.3576 130.005 15.7426 128.653 17.4508C127.302 19.159 126.09 20.7287 125.018 22.1138C123.945 23.4988 122.64 24.93 121.242 26.5459V29.7777C123.619 27.0999 125.67 24.8839 127.395 23.1757C129.12 21.4674 130.611 20.1747 131.777 19.2975C132.988 18.4203 133.874 18.0048 134.434 18.0048C134.946 18.0048 135.459 18.328 135.925 18.9744C136.391 19.6207 136.624 20.1286 136.624 20.5441C136.624 20.7287 136.531 20.9596 136.345 21.2366C135.086 22.8063 134.061 24.0528 133.315 25.0685C132.569 26.0842 131.963 27.0076 131.59 27.7925C131.171 28.5773 130.984 29.2698 130.984 29.87C130.984 30.701 131.357 31.1627 132.196 31.1627C133.035 31.1627 134.946 30.0085 137.836 27.654H137.79ZM142.032 28.6235V29.316C142.032 30.3779 142.265 31.2089 142.777 31.8091C143.29 32.4093 143.943 32.6863 144.782 32.6863C145.621 32.6863 146.553 32.5016 147.485 32.0861C148.418 31.6706 149.35 31.1166 150.236 30.424C151.168 29.7315 152.287 28.8082 153.592 27.654V29.316C151.587 31.7629 149.723 33.6558 147.951 34.9485C146.18 36.2412 144.409 36.8876 142.638 36.8876C141.053 36.8876 139.841 36.2874 138.908 35.0408C137.976 33.7943 137.51 32.0861 137.51 29.9162C137.51 28.0233 137.93 26.3151 138.815 24.7454C139.701 23.2218 141.099 21.5598 143.057 19.8516C144.409 18.6974 145.714 17.774 147.066 17.22C148.418 16.666 149.583 16.3428 150.608 16.3428C151.447 16.3428 152.1 16.5275 152.566 16.943C153.032 17.3123 153.312 17.9125 153.312 18.6974C153.312 19.8516 152.892 20.9596 152.053 22.1138C151.214 23.2218 149.956 24.376 148.231 25.4841C146.506 26.5921 144.409 27.654 141.938 28.6697L142.032 28.6235ZM142.311 26.8691C143.896 26.2227 145.248 25.4379 146.413 24.5145C147.532 23.5912 148.371 22.6678 148.93 21.8368C149.49 20.9596 149.723 20.3594 149.723 19.9439C149.723 19.5284 149.536 19.3437 149.163 19.3437C148.837 19.3437 148.324 19.5284 147.625 19.9439C146.926 20.3594 146.18 20.9134 145.434 21.5598C144.689 22.2061 144.036 22.991 143.477 23.9143C142.871 24.8377 142.498 25.8072 142.358 26.8691H142.311ZM168.415 27.654V29.5007C167.343 30.5625 166.55 31.3474 165.991 31.8552C165.432 32.3631 164.686 32.8248 163.753 33.3326C163.753 34.9947 163.66 36.3797 163.52 37.5339C163.381 38.6881 163.008 39.8885 162.448 41.1812C161.889 42.4739 161.05 43.8589 159.885 45.3825C158.766 46.8599 157.647 48.0141 156.528 48.8451C155.41 49.6299 154.571 50.0455 153.965 50.0455C153.265 50.0455 152.659 49.4914 152.053 48.2911C151.494 47.1369 151.168 45.7057 151.168 43.9974C151.168 42.2892 151.447 40.6272 152.007 38.8266C152.566 37.0261 153.405 34.6715 154.571 31.7629C153.685 30.6087 153.265 29.4545 153.265 28.3465C153.265 27.4231 153.498 26.7306 153.965 26.2227C154.431 25.7149 155.083 25.2994 155.922 24.8839C156.528 23.9143 157.134 23.0372 157.694 22.3446C158.253 21.6521 158.999 20.7287 159.978 19.5745C161.796 14.9577 163.987 10.4333 166.457 6.04731C167.156 4.80077 167.622 4.01591 167.949 3.55423C168.228 3.13872 168.555 2.90788 168.881 2.90788C169.161 2.90788 169.44 3.13872 169.673 3.6004C169.906 4.06208 170 4.6161 170 5.35479C170 6.23198 169.906 7.063 169.72 7.80169C169.534 8.54038 169.254 9.27907 168.928 10.0178C168.601 10.7564 168.089 11.6798 167.483 12.6955C166.877 13.7112 166.504 14.4037 166.364 14.6346C165.478 16.2043 164.499 17.9587 163.381 19.8977C162.262 21.8368 161.376 23.3603 160.724 24.4684C160.071 25.5764 159.605 26.4074 159.325 26.9614C160.257 27.7925 161.05 28.5311 161.609 29.1313C162.169 29.7315 162.635 30.4702 163.054 31.3012C163.66 31.0704 164.22 30.7934 164.686 30.4702C165.152 30.147 165.758 29.6853 166.457 29.1313C167.156 28.5773 167.762 28.0233 168.415 27.5616V27.654ZM160.491 34.9023V34.3483C159.931 34.3945 159.558 34.3945 159.232 34.3483C158.906 34.3022 158.579 34.256 158.206 34.1175C157.834 33.979 157.507 33.8866 157.274 33.7481C157.041 33.6096 156.808 33.5173 156.528 33.425C155.177 36.7952 154.524 39.5653 154.524 41.7814C154.524 42.8894 154.71 43.8128 155.037 44.5976C155.363 45.3825 155.736 45.7518 156.202 45.7518C156.668 45.7518 157.228 45.3363 157.927 44.5053C158.626 43.6743 159.232 42.4277 159.745 40.8118C160.257 39.196 160.491 37.2107 160.491 34.8562V34.9023ZM149.583 16.4813C147.112 16.5275 144.968 17.1738 142.964 18.328C143.057 18.5127 143.243 18.3742 143.337 18.5127C143.243 18.605 143.104 18.6974 143.01 18.7897C142.591 19.1129 142.032 18.9282 141.938 18.3742C141.892 18.051 141.845 17.7278 141.845 17.4046C141.845 17.1738 141.845 17.0815 141.519 17.22C140.913 17.5432 140.307 17.5893 139.701 17.22C139.608 17.1738 139.514 17.1738 139.468 17.1276C138.069 16.8045 137.37 15.1886 138.116 13.942C138.396 13.4342 138.675 12.9725 138.908 12.4185C139.235 11.7721 139.841 11.3566 140.447 10.9873C140.773 10.8026 141.053 10.5718 141.332 10.2486C142.171 9.2329 143.383 8.77122 144.642 8.49421C145.294 8.35571 145.994 8.35571 146.693 8.49421C146.879 8.49421 147.066 8.49421 147.206 8.49421C147.951 8.30954 148.651 8.35571 149.35 8.54038C150.562 8.90973 151.214 9.92542 151.028 11.1258C151.028 11.3105 151.028 11.4951 151.075 11.6798C151.261 12.1877 150.981 12.6032 150.702 12.9725C150.562 13.111 150.422 13.2957 150.282 13.3419C149.583 13.5727 149.583 14.0805 149.723 14.6346C149.816 15.0039 149.863 15.4194 149.816 15.8349C149.676 15.3271 149.443 14.7731 149.35 14.2652C149.257 13.8497 149.024 13.7574 148.651 13.7112C146.926 13.6189 145.294 14.0344 143.756 14.7269C143.197 14.9577 142.731 15.2809 142.171 15.5118C142.032 15.6041 141.938 15.6964 141.892 15.8349C141.845 15.9734 141.798 16.1581 141.892 16.2504C142.032 16.3889 142.125 16.2043 142.218 16.1119C143.104 15.4194 144.129 15.0039 145.201 14.7269C146.32 14.4499 147.439 14.2652 148.557 14.2191C148.651 14.2191 148.791 14.1267 148.93 14.3114C148.231 14.4037 147.532 14.4961 146.833 14.6346C145.667 14.8654 144.502 15.1424 143.477 15.6964C143.29 15.7888 143.15 15.8811 142.964 16.0196C142.498 16.2966 142.265 16.666 142.404 17.22C142.544 18.051 142.498 18.051 143.243 17.6817C145.061 16.7583 146.926 16.2504 148.977 16.3428C149.117 16.3428 149.257 16.3428 149.443 16.3428C149.443 16.3428 149.536 16.3428 149.676 16.4351L149.583 16.4813ZM145.434 10.8026C146.087 11.2643 146.273 11.6798 146.32 11.9568C146.46 12.7878 146.46 12.9725 146.46 12.9725C146.46 13.388 146.553 13.5265 146.973 13.388C147.765 13.2034 147.905 13.388 148.091 13.2495C148.371 13.0187 148.091 12.6493 148.185 12.0492C148.278 11.5413 148.604 11.1258 148.977 10.8026C148.977 10.9873 148.93 11.0796 148.93 11.0796C148.977 10.8026 148.791 11.6336 148.744 11.9106C148.557 12.7878 148.744 12.7417 148.651 13.111C148.651 13.111 148.651 13.2495 148.651 13.2957C148.651 13.2957 148.744 13.3419 148.791 13.3419C149.443 13.4342 150.236 13.0187 150.515 12.4185C150.608 12.1877 150.748 11.9568 150.422 11.8183C150.282 11.726 150.375 11.6336 150.422 11.5413C150.702 10.7564 150.608 10.0639 150.002 9.50991C149.303 8.90973 148.464 8.90973 147.532 9.04823C147.625 9.14057 147.812 9.27907 147.951 9.50991C148.138 9.83309 148.138 10.1101 148.185 10.2948C147.765 9.64842 147.299 9.37141 147.066 9.2329C144.875 8.12487 141.892 10.6179 141.705 10.895C141.565 11.0796 141.426 11.2181 141.192 11.3105C140.214 11.8183 139.701 12.4185 139.701 12.4185C139.514 12.6493 139.281 12.8802 139.235 13.2957C139.095 13.9882 139.514 14.5422 139.608 14.5884C139.794 14.8192 139.934 14.9116 140.214 15.0962C140.353 15.1886 140.82 15.4656 141.146 15.5579C142.125 15.7888 143.197 14.6807 143.29 14.5884C142.917 14.2652 142.404 13.7574 142.032 12.9725C141.798 12.5108 141.659 12.0492 141.565 11.6798C141.752 12.4647 143.849 14.4961 144.642 14.0805C144.922 13.942 145.248 13.8497 145.528 13.8035C145.714 13.8035 145.854 13.7112 145.947 13.6189C146.134 13.4342 146.18 13.2034 146.18 13.0649C146.273 12.28 145.621 11.0335 145.528 10.895L145.434 10.8026ZM138.815 13.8497C138.629 14.1267 138.536 14.3576 138.489 14.6346C138.302 15.6964 138.722 16.3428 139.794 16.6198C139.887 16.6198 139.934 16.666 140.027 16.7583C140.4 17.0353 140.773 17.0353 141.192 16.8506C141.379 16.7583 141.565 16.7121 141.472 16.4351C141.379 16.2043 141.472 15.9273 141.053 15.8811C140.307 15.8811 139.701 15.4656 139.375 14.8192C139.188 14.4961 139.002 14.2191 138.862 13.8497H138.815Z" fill="white"/>
</svg>
